# xmcd
#
# Track frame offsets:
#	150
#	16341
#	25988
#	44042
#	52559
#	66088
#	75691
#	92866
#	106267
#	118656
#	131994
#	145689
#	156471
#	178456
#
# Disc length: 2632 seconds
#
# Revision: 1
# Processed by: cddbd v1.5.2PL0 Copyright (c) Steve Scherf et al.
# Submitted via: audiograbber 1.83.01
#
DISCID=c40a460e
DTITLE=Atkinson Family - Angels Rejoice
DYEAR=2007
DGENRE=Bluegrass
TTITLE0=Angels Rejoice
TTITLE1=Little Black Train
TTITLE2=Wayfaring Stranger
TTITLE3=Lord Won't You help me
TTITLE4=Someday My Ship Will Sail
TTITLE5=Shield of Faith
TTITLE6=The Hammer
TTITLE7=Rank Stranger
TTITLE8=My Burdens are Heavy
TTITLE9=Master's Hand
TTITLE10=Shores of Jordan
TTITLE11=All Prayed Up
TTITLE12=Friday
TTITLE13=That Same Spirit
EXTD=
EXTT0=
EXTT1=
EXTT2=
EXTT3=
EXTT4=
EXTT5=
EXTT6=
EXTT7=
EXTT8=
EXTT9=
EXTT10=
EXTT11=
EXTT12=
EXTT13=
PLAYORDER=
